<svg width="32" height="32" viewBox="0 0 32 32" fill="none" xmlns="http://www.w3.org/2000/svg">
<path d="M15.5299 0.0472276C14.1846 0.283403 12.8774 1.21334 12.2845 2.35732C11.7905 3.30202 11.6537 4.77812 11.9653 5.76711C12.1401 6.32064 12.6114 7.02179 13.151 7.55319C13.7134 8.09934 14.1542 8.38718 14.7699 8.61598C15.0207 8.70454 15.2335 8.81525 15.2487 8.85953C15.3171 9.03666 15.6439 12.4095 15.5983 12.4538C15.5679 12.476 15.3247 12.5719 15.0511 12.6679C14.2683 12.9336 13.4322 13.4576 12.8394 14.048C12.543 14.3432 12.2769 14.5868 12.2617 14.5868C12.2389 14.5868 11.4029 14.1366 10.4148 13.5904L8.61355 12.5941L8.52995 11.9077C8.43114 11.0368 8.24113 10.5201 7.78511 9.86328C6.94906 8.65288 5.7938 8.06982 4.25852 8.0772C3.05765 8.08458 2.0468 8.52741 1.18795 9.43521C-0.096514 10.7711 -0.354928 12.5055 0.488717 14.1292C0.823135 14.7713 1.24876 15.2363 1.88719 15.6496C2.70044 16.1736 3.34647 16.3729 4.25852 16.3729C5.34538 16.3729 6.33343 16.0112 7.07067 15.347L7.51909 14.9411L9.25199 15.9227C10.2096 16.4541 11.0685 16.9412 11.1749 17.0002C11.3573 17.1035 11.3649 17.1331 11.3725 17.9671C11.3877 19.0003 11.5701 19.7384 12.0109 20.5945C12.1781 20.9119 12.3149 21.1849 12.3149 21.1923C12.3149 21.1997 11.6233 21.8418 10.7721 22.6094L9.23679 24.0117L8.81876 23.8714C7.42029 23.3917 5.7558 23.7976 4.55493 24.8973C3.69609 25.687 3.31607 26.5875 3.31607 27.8348C3.32367 29.5249 4.13691 30.7796 5.733 31.525C6.83506 32.0343 7.51149 32.1155 8.54515 31.8571C9.33559 31.6652 9.96642 31.3257 10.4985 30.8091C11.8285 29.5101 12.1857 27.7314 11.4409 26.1077L11.2281 25.6575L12.1325 24.8309C12.6342 24.3733 13.303 23.7534 13.6222 23.4508L14.2151 22.9046L14.8003 23.1703C15.8035 23.6131 16.2368 23.6943 17.5212 23.6943C18.6157 23.7017 18.6917 23.6869 19.3833 23.4581C20.0902 23.222 20.8654 22.816 21.3138 22.4618L21.5418 22.2846L22.1499 22.6315C22.4919 22.8234 23.0087 23.1186 23.3127 23.2884L23.86 23.591L23.7384 23.9083C23.594 24.2921 23.5788 25.4583 23.7156 26.0266C23.8448 26.5875 24.2856 27.3772 24.7112 27.8274C25.4333 28.595 26.7025 29.1264 27.8198 29.1264C29.0662 29.1264 29.8111 28.8164 30.7459 27.9086C31.6732 27.0082 32 26.2775 32 25.0966C32 23.4286 31.1944 22.1001 29.7807 21.4137C29.0282 21.0595 28.5114 20.934 27.7438 20.934C27.0141 20.934 26.5201 21.0447 25.9501 21.3252L25.5625 21.5171L24.278 20.8085C23.5712 20.4174 22.9859 20.0926 22.9783 20.0926C22.9707 20.0853 23.0391 19.886 23.1227 19.6424C23.3659 18.9487 23.3963 17.6202 23.1911 16.7714C23.0011 15.9891 22.4995 15.0222 21.9599 14.3801C21.2454 13.5388 19.9686 12.749 18.8589 12.476L18.3269 12.3431L18.2813 12.0405C18.2053 11.5165 17.9316 8.66026 17.9545 8.6455C17.9697 8.63812 18.1901 8.52003 18.4561 8.38718C19.9078 7.64175 20.9794 5.96638 20.9794 4.43862C20.9794 3.83342 20.721 2.85181 20.4246 2.30566C19.9534 1.44214 18.8361 0.526959 17.8404 0.194837C17.3008 0.0177057 16.1532 -0.0560992 15.5299 0.0472276Z" fill="#6A0DAD"/>
</svg>
